<?xml version="1.0" encoding="UTF-8" standalone="no"?>
<svg
   version="1.0"
   width="1280.000000pt"
   height="1278.000000pt"
   viewBox="0 0 1280.000000 1278.000000"
   preserveAspectRatio="xMidYMid meet"
   id="svg1"
   sodipodi:docname="gear.svg"
   inkscape:version="1.4 (86a8ad7, 2024-10-11)"
   xmlns:inkscape="http://www.inkscape.org/namespaces/inkscape"
   xmlns:sodipodi="http://sodipodi.sourceforge.net/DTD/sodipodi-0.dtd"
   xmlns="http://www.w3.org/2000/svg"
   xmlns:svg="http://www.w3.org/2000/svg">
  <defs
     id="defs1" />
  <sodipodi:namedview
     id="namedview1"
     pagecolor="#505050"
     bordercolor="#eeeeee"
     borderopacity="1"
     inkscape:showpageshadow="0"
     inkscape:pageopacity="0"
     inkscape:pagecheckerboard="0"
     inkscape:deskcolor="#505050"
     inkscape:document-units="pt"
     inkscape:zoom="22.627417"
     inkscape:cx="195.49293"
     inkscape:cy="315.39172"
     inkscape:window-width="1920"
     inkscape:window-height="991"
     inkscape:window-x="-9"
     inkscape:window-y="-9"
     inkscape:window-maximized="1"
     inkscape:current-layer="svg1" />
  <metadata
     id="metadata1">
Created by potrace 1.15, written by Peter Selinger 2001-2017
</metadata>
  <path
     style="display:inline;fill:#ff0000;stroke-width:2.2044"
     d="m 841.26328,1701.7934 c -4.08656,-0.9647 -9.38853,-3.7125 -11.78216,-6.1062 -2.57908,-2.579 -15.04962,-35.9459 -30.61102,-81.9045 -14.44243,-42.6539 -28.18379,-81.3254 -30.53632,-85.9368 -2.42947,-4.7621 -6.94646,-9.4734 -10.45562,-10.9054 -12.43239,-5.0731 -85.05533,-20.154 -97.05316,-20.154 h -12.35352 l -65.37126,65.0298 c -48.46861,48.2154 -66.70968,65.0298 -70.54765,65.0298 -7.10601,0 -51.58592,-23.884 -133.901,-71.8997 -14.68711,-8.5672 -14.71758,-8.1984 8.16293,-98.7824 11.35307,-44.9468 20.72234,-86.2591 20.82059,-91.8049 0.16114,-9.097 -0.93447,-11.3611 -11.20033,-23.1462 -6.25844,-7.1846 -23.21401,-24.7186 -37.67905,-38.9645 -26.15455,-25.7583 -26.35822,-25.9017 -36.79809,-25.9017 -5.77392,0 -47.08291,8.0621 -91.79777,17.9157 -70.01937,15.4299 -82.16085,17.559 -87.50577,15.3451 -6.73049,-2.7878 -16.07404,-18.934 -56.472717,-97.588 -14.789574,-28.7945 -21.151609,-43.488 -21.151609,-48.8511 0,-7.2052 3.999925,-11.4294 65.995746,-69.6953 47.53512,-44.6753 66.66493,-64.0528 68.38801,-69.2738 4.045,-12.2565 -12.82794,-102.72499 -20.31309,-108.91378 -3.8405,-3.17534 -36.09118,-15.70486 -112.401383,-43.66838 L 1.1341676,847.5912 1.1181833,836.43117 C 1.0800366,809.79741 13.370212,703.29569 18.81548,683.07351 c 3.59896,-13.36553 -1.45489,-11.92972 123.01653,-34.94928 33.1481,-6.13035 62.95537,-12.53514 66.23837,-14.23284 3.283,-1.69771 8.58557,-7.89408 11.78349,-13.76973 8.72248,-16.02604 30.34654,-70.23987 30.33711,-76.05833 -0.0118,-7.28909 -4.35574,-13.75034 -53.80955,-80.03746 -24.42233,-32.73531 -46.60778,-62.64783 -49.30099,-66.47224 -9.47498,-13.4547 -9.42557,-13.54599 42.17273,-77.91586 30.42909,-37.96086 50.52705,-61.85233 57.27013,-68.07989 7.36931,-6.80588 10.25314,-6.18973 53.89084,11.51444 19.05994,7.73276 54.67715,22.1967 79.14937,32.14209 30.13499,12.24671 47.47165,18.12361 53.71846,18.20983 8.06212,0.11125 12.86533,-2.33894 38.14581,-19.4588 22.38761,-15.16082 29.97495,-21.57064 33.58126,-28.36955 l 4.65893,-8.78347 -6.15043,-74.94955 c -7.2618,-88.492937 -7.64979,-101.980293 -3.11975,-108.447838 2.48907,-3.553624 23.40088,-11.391226 84.62992,-31.718685 74.8857,-24.861353 81.84534,-26.782821 87.90986,-24.270816 4.997,2.069829 18.58866,19.903898 56.33678,73.921401 27.363,39.156388 53.01177,73.937278 56.99728,77.290868 l 7.24638,6.09743 34.20089,-1.49097 c 27.71637,-1.20829 35.24578,-2.24 39.71189,-5.44149 3.33565,-2.39114 21.76283,-33.88518 46.68347,-79.787076 22.64486,-41.710111 43.33254,-78.0808791 45.97264,-80.8239303 2.9142,-3.0278402 7.42578,-4.9873653 11.48289,-4.9873653 10.99836,0 158.70371,35.2380586 167.54981,39.9723566 8.696,4.653935 10.0286,13.79306 12.5008,85.730335 3.3084,96.2667 3.9971,104.23655 9.7413,112.736 5.4398,8.04903 46.2638,31.81002 58.6432,34.1324 9.1295,1.71271 10.2147,1.1844 102.4928,-49.89156 47.7272,-26.41705 65.6969,-35.30566 71.3757,-35.30566 8.8329,0 19.0817,9.45206 89.2402,82.3024 36.8417,38.25531 42.1097,44.61024 42.1097,50.79823 0,7.50225 -2.8886,12.81838 -57.8153,106.40142 -24.8963,42.41798 -31.2424,54.87949 -31.2424,61.34913 0,9.38602 20.8984,52.20893 30.4897,62.47645 7.2263,7.73583 9.6323,8.12964 76.4236,12.50923 96.8997,6.35387 114.4853,8.00646 119.5308,11.23284 2.9674,1.89753 6.2124,7.69712 8.2221,14.69485 3.1413,10.93818 30.0445,132.18252 33.2667,149.92291 3.2173,17.71326 3.1307,17.77909 -75.8392,57.67876 -39.5747,19.99518 -76.6127,39.31294 -82.3067,42.92837 -12.9854,8.24518 -14.3427,12.84514 -16.3269,55.33201 l -1.4934,31.9785 6.3612,7.55992 c 3.4987,4.15794 37.2834,30.59932 75.077,58.7586 37.7937,28.15931 69.7895,53.20491 71.1017,55.65691 1.3123,2.452 2.386,6.8573 2.386,9.7895 0,4.9048 -18.8234,58.0462 -45.3851,128.1289 -12.3544,32.597 -17.0222,37.6705 -32.871,35.7279 -4.8497,-0.5944 -43.4344,-4.7298 -85.7438,-9.1898 -63.5976,-6.704 -78.3937,-7.6694 -85.3959,-5.5715 -7.2391,2.1689 -11.483,6.5768 -29.2077,30.3366 -11.4058,15.2894 -22.9489,32.2259 -25.6512,37.6367 -6.0938,12.2018 -7.8915,5.7562 28.9319,103.7359 17.8726,47.5555 28.4302,78.7065 28.4302,83.8858 0,6.4322 -1.5711,9.7285 -7.1643,15.0316 -8.3848,7.9499 -112.914,86.9815 -119.9948,90.7247 -11.6334,6.1499 -15.1628,4.1311 -71.2368,-40.7478 -67.1159,-53.7164 -83.4759,-65.9931 -90.0653,-67.5859 -6.2701,-1.5156 -25.0613,4.091 -62.3921,18.6153 -30.0773,11.7023 -38.4218,16.8602 -41.8525,25.8702 -1.2089,3.175 -10.0518,41.9799 -19.6507,86.2332 -9.599,44.2533 -18.9122,83.6356 -20.6961,87.5163 -2.4427,5.3139 -5.41375,7.6402 -12.03411,9.4229 -11.59185,3.1213 -60.49378,8.2069 -94.99092,9.8786 -15.15524,0.7344 -32.01889,1.6985 -37.47477,2.1424 -5.45589,0.444 -13.26334,0.018 -17.34992,-0.9469 z m 90.95238,-357.2345 c 105.21804,-17.8648 194.85474,-62.4031 267.84114,-133.084 82.5804,-79.9718 131.5687,-174.4826 149.1937,-287.83195 4.965,-31.93062 4.8788,-113.12442 -0.1557,-146.5925 -16.3953,-108.99344 -66.8032,-206.65212 -146.9043,-284.60816 -27.53,-26.79275 -44.2271,-40.23576 -75.1297,-60.48755 -59.3532,-38.89683 -128.90303,-65.15668 -200.87201,-75.84305 -33.1063,-4.91581 -111.62413,-5.06732 -142.52514,-0.27503 -144.98366,22.48487 -265.96938,99.3554 -347.22141,220.61353 -17.07907,25.48827 -43.94808,79.25875 -53.97521,108.01553 C 363.52856,738.77934 355.21756,790.07005 355.32028,852 c 0.13524,81.54974 14.97757,146.06188 50.2095,218.2354 58.81805,120.4905 162.31268,211.5136 288.1744,253.4484 58.90941,19.6276 92.53557,24.9141 160.25533,25.1945 42.61067,0.1765 56.19175,-0.5731 78.25615,-4.3194 z"
     id="path2"
     transform="scale(0.75)" />
</svg>
