<?xml version="1.0" encoding="UTF-8" standalone="no"?>
<!-- Created with Inkscape (http://www.inkscape.org/) -->

<svg
   width="5.6430497mm"
   height="5.6444421mm"
   viewBox="0 0 19.995059 19.999992"
   id="svg2"
   version="1.1"
   inkscape:version="1.4 (86a8ad7, 2024-10-11)"
   sodipodi:docname="rad.svg"
   xmlns:inkscape="http://www.inkscape.org/namespaces/inkscape"
   xmlns:sodipodi="http://sodipodi.sourceforge.net/DTD/sodipodi-0.dtd"
   xmlns="http://www.w3.org/2000/svg"
   xmlns:svg="http://www.w3.org/2000/svg"
   xmlns:rdf="http://www.w3.org/1999/02/22-rdf-syntax-ns#"
   xmlns:cc="http://creativecommons.org/ns#"
   xmlns:dc="http://purl.org/dc/elements/1.1/">
  <defs
     id="defs4" />
  <sodipodi:namedview
     id="base"
     pagecolor="#ffffff"
     bordercolor="#666666"
     borderopacity="1.0"
     inkscape:pageopacity="0.0"
     inkscape:pageshadow="2"
     inkscape:zoom="31.678384"
     inkscape:cx="9.4070456"
     inkscape:cy="13.384521"
     inkscape:document-units="px"
     inkscape:current-layer="layer1"
     showgrid="false"
     showborder="false"
     fit-margin-top="0"
     fit-margin-left="0"
     fit-margin-right="0"
     fit-margin-bottom="0"
     inkscape:window-width="1920"
     inkscape:window-height="991"
     inkscape:window-x="-9"
     inkscape:window-y="-9"
     inkscape:window-maximized="1"
     inkscape:showpageshadow="0"
     inkscape:pagecheckerboard="0"
     inkscape:deskcolor="#505050" />
  <metadata
     id="metadata7">
    <rdf:RDF>
      <cc:Work
         rdf:about="">
        <dc:format>image/svg+xml</dc:format>
        <dc:type
           rdf:resource="http://purl.org/dc/dcmitype/StillImage" />
        <dc:title />
      </cc:Work>
    </rdf:RDF>
  </metadata>
  <g
     inkscape:label="Layer 1"
     inkscape:groupmode="layer"
     id="layer1"
     transform="translate(-1035.2766,-795.98303)">
    <path
       id="path5028"
       style="fill:#0033ff;fill-opacity:1;fill-rule:nonzero"
       inkscape:label="path5028"
       d="m 1041.9654,800.17981 v 0.002 c -0.021,-0.02 -0.4632,0.25677 -0.7708,0.48157 -0.408,0.2981 -0.6435,0.53245 -1.1609,1.1499 -0.2411,0.28768 -0.4137,0.54452 -0.6555,0.98144 -0.2404,0.43436 -0.5209,1.17331 -0.6079,1.60401 -0.1479,0.72716 -0.2326,1.3663 -0.1996,1.4978 l 0.011,0.0494 0.3643,0.005 c 0.1997,0.003 1.1808,0.006 2.179,0.009 l 1.8146,0.004 0.011,-0.0641 c 0.01,-0.0358 0.012,-0.11953 0.022,-0.18493 0.031,-0.31928 0.178,-0.7363 0.3461,-0.98145 0.2058,-0.29998 0.547,-0.63562 0.7544,-0.74341 0.033,-0.0171 0.066,-0.0346 0.066,-0.0366 0.01,-0.005 -2.1496,-3.753 -2.1716,-3.7738 z m 6.6797,0.004 c -0.016,5.2e-4 -2.1936,3.78228 -2.1826,3.79028 0,0.003 0.062,0.0438 0.1282,0.0916 0.4405,0.31876 0.7379,0.70676 0.8917,1.15722 0.063,0.18451 0.1373,0.54309 0.1373,0.66834 v 0.0751 h 2.1827 2.1826 l -0.013,-0.30395 c -0.04,-0.95792 -0.2811,-1.87018 -0.7142,-2.69715 -0.5021,-0.95871 -0.9463,-1.51062 -1.7559,-2.18262 -0.2909,-0.24143 -0.804,-0.60075 -0.857,-0.59875 z m -3.3709,4.53918 c -0.059,-1e-5 -0.118,0.008 -0.2234,0.0238 -0.3103,0.0481 -0.4789,0.13099 -0.6794,0.33142 -0.2004,0.20043 -0.2834,0.37077 -0.3314,0.68115 -0.033,0.21071 -0.033,0.23403 0,0.45044 0.047,0.3095 0.1283,0.47914 0.3314,0.68482 0.1815,0.18389 0.3731,0.28356 0.6171,0.32226 0.3272,0.0519 0.6465,0.0189 0.8808,-0.0915 0.1958,-0.0923 0.4563,-0.35124 0.5493,-0.54749 0.1032,-0.20833 0.1365,-0.50403 0.1025,-0.78918 -0.038,-0.32206 -0.1264,-0.50402 -0.3552,-0.73059 -0.1826,-0.1808 -0.3642,-0.26608 -0.6629,-0.31128 -0.1082,-0.0163 -0.1695,-0.0238 -0.2288,-0.0238 z m 1.1956,3.28675 c 0,-0.005 -0.07,0.0236 -0.1446,0.0622 -0.1765,0.0915 -0.4658,0.18495 -0.7086,0.22705 -0.1657,0.0287 -0.2317,0.0298 -0.456,0.011 -0.3195,-0.0267 -0.6002,-0.0944 -0.8642,-0.21057 l -0.1996,-0.0879 -0.026,0.0421 c -0.065,0.1031 -2.1342,3.69228 -2.1442,3.71888 -0.024,0.0632 0.6039,0.35354 1.2634,0.5841 0.3933,0.13745 1.2143,0.29929 1.6699,0.32959 v 0.002 c 0.1365,0.009 0.2624,0.014 0.2784,0.011 0.016,-0.003 0.1974,-0.0113 0.401,-0.0183 0.9957,-0.0335 1.9323,-0.28181 2.8161,-0.74524 0.1569,-0.0822 0.2857,-0.15164 0.2857,-0.15564 0,-0.009 -2.1597,-3.75854 -2.1717,-3.77014 z" />
  </g>
</svg>
